<svg preserveAspectRatio="none" overflow="visible" style="display: block;" width="841" height="939" viewBox="0 0 841 939" fill="none" xmlns="http://www.w3.org/2000/svg">
<g id="Group 1410134729">
<g id="Group 1410134727" opacity="0.6">
<path id="Vector 6745" d="M463.625 0.5V938.5" stroke="#E7E7E7" stroke-linecap="round" stroke-dasharray="2 5"/>
<path id="Vector 6754" d="M487.625 0.5V938.5" stroke="#E7E7E7" stroke-linecap="round" stroke-dasharray="2 5"/>
<path id="Vector 6755" d="M353.5 142.5V796.5" stroke="#E7E7E7" stroke-linecap="round" stroke-dasharray="2 5"/>
<path id="Vector 6752" d="M0.5 425.5L840.5 425.5" stroke="#E7E7E7" stroke-linecap="round" stroke-dasharray="2 5"/>
<path id="Vector 6756" d="M0.5 401.5L840.5 401.5" stroke="#E7E7E7" stroke-linecap="round" stroke-dasharray="2 5"/>
<path id="Vector 6757" d="M0.5 537.5L840.5 537.5" stroke="#E7E7E7" stroke-linecap="round" stroke-dasharray="2 5"/>
<path id="Vector 6753" d="M0.5 513.5L840.5 513.5" stroke="#E7E7E7" stroke-linecap="round" stroke-dasharray="2 5"/>
<path id="Vector 6751" d="M377.5 142.5V796.5" stroke="#E7E7E7" stroke-linecap="round" stroke-dasharray="2 5"/>
<g id="Group 1410134386">
<path id="Ellipse 7292" d="M463.5 469.5C463.5 493.801 451.181 513.5 420.5 513.5C396.752 513.5 377.5 493.801 377.5 469.5C377.5 442.868 395.397 425.5 420.5 425.5C444.248 425.5 463.5 445.199 463.5 469.5Z" stroke="#E7E7E7" stroke-linecap="round" stroke-dasharray="2 5"/>
<path id="Ellipse 7293" d="M456.5 469.5C456.5 489.935 446.186 506.5 420.5 506.5C400.618 506.5 384.5 489.935 384.5 469.5C384.5 447.105 399.484 432.5 420.5 432.5C440.382 432.5 456.5 449.065 456.5 469.5Z" stroke="#E7E7E7" stroke-linecap="round" stroke-dasharray="2 5"/>
</g>
<g id="Group 1410134385">
<path id="Ellipse 7294" d="M445.5 469.5C445.5 493.801 438.338 513.5 420.5 513.5C406.693 513.5 395.5 493.801 395.5 469.5C395.5 442.868 405.905 425.5 420.5 425.5C434.307 425.5 445.5 445.199 445.5 469.5Z" stroke="#E7E7E7" stroke-linecap="round" stroke-dasharray="2 5"/>
<path id="Ellipse 7295" d="M438.5 469.5C438.5 489.935 433.343 506.5 420.5 506.5C410.559 506.5 402.5 489.935 402.5 469.5C402.5 447.105 409.992 432.5 420.5 432.5C430.441 432.5 438.5 449.065 438.5 469.5Z" stroke="#E7E7E7" stroke-linecap="round" stroke-dasharray="2 5"/>
</g>
<path id="Vector 6731" d="M423.625 71.5L423.625 869.5" stroke="#E7E7E7" stroke-linecap="round" stroke-dasharray="2 5"/>
<path id="Vector 6749" d="M416.625 71.5L416.625 869.5" stroke="#E7E7E7" stroke-linecap="round" stroke-dasharray="2 5"/>
<g id="Group 1410134387">
<path id="Vector 6750" d="M824.75 473L15.75 473" stroke="#E7E7E7" stroke-linecap="round" stroke-dasharray="2 5"/>
<path id="Vector 6751_2" d="M824.75 466L15.75 466" stroke="#E7E7E7" stroke-linecap="round" stroke-dasharray="2 5"/>
</g>
<g id="Group 1410134388">
<path id="Vector 6750_2" d="M824.75 454L15.75 454" stroke="#E7E7E7" stroke-linecap="round" stroke-dasharray="2 5"/>
<path id="Vector 6751_3" d="M824.75 447L15.75 447" stroke="#E7E7E7" stroke-linecap="round" stroke-dasharray="2 5"/>
</g>
<g id="Group 1410134389">
<path id="Vector 6750_3" d="M824.75 492L15.75 492" stroke="#E7E7E7" stroke-linecap="round" stroke-dasharray="2 5"/>
<path id="Vector 6751_4" d="M824.75 485L15.75 485" stroke="#E7E7E7" stroke-linecap="round" stroke-dasharray="2 5"/>
</g>
<rect id="Rectangle 3468172" x="464" y="414" width="11" height="11" fill="#E7E7E7" stroke="#E7E7E7"/>
<rect id="Rectangle 3468182" opacity="0.6" x="464" y="402" width="23" height="23" fill="#E7E7E7" stroke="#E7E7E7"/>
<rect id="Rectangle 3468184" opacity="0.6" x="464" y="514" width="23" height="23" fill="#E7E7E7" stroke="#E7E7E7"/>
<rect id="Rectangle 3468183" opacity="0.6" x="354" y="402" width="23" height="23" fill="#E7E7E7" stroke="#E7E7E7"/>
<rect id="Rectangle 3468185" opacity="0.6" x="354" y="514" width="23" height="23" fill="#E7E7E7" stroke="#E7E7E7"/>
</g>
<g id="Union">
<path fill-rule="evenodd" clip-rule="evenodd" d="M420.5 425.5C433.675 425.5 445.467 431.564 453.354 441.113C455.316 443.488 453.456 446.805 450.368 446.805C449.127 446.805 447.967 446.221 447.16 445.282C441.445 438.638 433.429 434.166 424.467 433.137C424.21 433.107 423.986 433.309 423.986 433.567V505.528C423.986 505.779 424.201 505.978 424.451 505.961C435.82 505.207 443.181 501.176 447.881 495.764C452.479 490.469 455.191 483.09 455.884 474.187C455.926 473.655 455.5 473.205 454.964 473.205H434.911C432.857 473.205 431.192 471.546 431.192 469.5C431.192 467.454 432.857 465.795 434.911 465.795H459.626C461.729 465.795 463.5 467.405 463.5 469.5C463.5 493.801 451.181 513.5 420.5 513.5C396.752 513.5 377.5 493.801 377.5 469.5C377.5 442.868 395.397 425.5 420.5 425.5ZM407.76 492.195C407.451 492.195 407.24 492.506 407.359 492.791C407.986 494.291 408.668 495.691 409.395 496.976C411.555 500.798 413.815 503.183 415.91 504.549C416.189 504.732 416.549 504.525 416.549 504.191V492.63C416.549 492.39 416.353 492.195 416.112 492.195H407.76ZM393.486 492.195C393.124 492.195 392.921 492.608 393.149 492.889C395.68 496.015 398.707 498.695 402.098 500.808C402.478 501.045 402.911 500.611 402.695 500.219C401.405 497.881 400.262 495.289 399.29 492.49C399.229 492.314 399.063 492.195 398.876 492.195H393.486ZM385.598 473.205C385.34 473.205 385.139 473.427 385.167 473.683C385.589 477.516 386.584 481.159 388.059 484.526C388.128 484.683 388.285 484.784 388.457 484.784H396.635C396.912 484.784 397.119 484.53 397.064 484.259C396.385 480.884 395.932 477.319 395.738 473.62C395.726 473.388 395.534 473.205 395.301 473.205H385.598ZM403.624 473.205C403.374 473.205 403.175 473.414 403.189 473.664C403.413 477.489 403.942 481.109 404.712 484.449C404.757 484.645 404.933 484.784 405.136 484.784H416.112C416.353 484.784 416.549 484.589 416.549 484.349V473.641C416.549 473.4 416.353 473.205 416.112 473.205H403.624ZM387.87 454.216C387.688 454.216 387.525 454.328 387.463 454.497C386.256 457.756 385.445 461.371 385.111 465.327C385.089 465.579 385.29 465.795 385.544 465.795H395.278C395.512 465.795 395.705 465.609 395.715 465.375C395.872 461.608 396.246 458.051 396.817 454.728C396.863 454.461 396.658 454.216 396.386 454.216H387.87ZM404.835 454.216C404.627 454.216 404.448 454.362 404.408 454.566C403.772 457.823 403.341 461.421 403.162 465.341C403.15 465.589 403.349 465.795 403.597 465.795H416.112C416.353 465.795 416.549 465.6 416.549 465.359V454.651C416.549 454.411 416.353 454.216 416.112 454.216H404.835ZM402.273 438.133C402.484 437.749 402.072 437.319 401.69 437.534C399.144 438.974 396.864 440.719 394.876 442.723C393.835 443.772 392.859 444.907 391.956 446.126C391.746 446.41 391.952 446.805 392.305 446.805H398.357C398.549 446.805 398.719 446.68 398.776 446.497C399.743 443.403 400.917 440.604 402.273 438.133ZM416.549 434.391C416.549 434.078 416.229 433.868 415.949 434.009C413.573 435.204 411.218 437.462 409.077 441.192C408.225 442.677 407.436 444.357 406.73 446.223C406.623 446.506 406.834 446.805 407.137 446.805H416.112C416.353 446.805 416.549 446.61 416.549 446.37V434.391Z" fill="white"/>
<path d="M441.998 477.837C444.426 477.837 446.445 479.699 446.459 482.118C446.467 483.513 446.432 485.093 446.3 486.606C446.134 488.506 445.728 490.511 445.338 492.124C444.865 494.078 443.073 495.375 441.055 495.375H436.769C434.704 495.375 432.882 494.017 432.455 492.003C432.117 490.413 431.778 488.46 431.657 486.606C431.555 485.043 431.563 483.41 431.612 481.984C431.695 479.62 433.688 477.837 436.062 477.837H441.998Z" fill="white"/>
</g>
</g>
</svg>
